<?xml version="1.0" standalone="no"?>
<!DOCTYPE svg PUBLIC "-//W3C//DTD SVG 20010904//EN"
 "http://www.w3.org/TR/2001/REC-SVG-20010904/DTD/svg10.dtd">
<svg version="1.0" xmlns="http://www.w3.org/2000/svg"
 width="32.000000pt" height="32.000000pt" viewBox="0 0 32.000000 32.000000"
 preserveAspectRatio="xMidYMid meet">
<metadata>
Created by potrace 1.16, written by Peter Selinger 2001-2019
</metadata>
<g transform="translate(0.000000,32.000000) scale(0.100000,-0.100000)"
fill="#000000" stroke="none">
<path d="M0 160 l0 -160 45 0 c37 0 45 3 45 18 0 10 -5 23 -12 30 -14 14 8
181 26 197 6 6 12 25 14 43 l2 32 -60 0 -60 0 0 -160z"/>
<path d="M206 293 c3 -16 12 -33 20 -40 23 -17 33 -162 12 -177 -8 -6 -17 -26
-20 -44 l-5 -32 54 0 53 0 0 160 0 160 -59 0 c-60 0 -60 0 -55 -27z"/>
<path d="M145 279 c4 -13 7 -35 7 -49 0 -33 15 -6 20 35 2 23 -1 30 -16 33
-16 3 -18 0 -11 -19z"/>
<path d="M118 154 c-3 -50 -1 -55 17 -52 27 4 31 79 4 96 -16 10 -18 6 -21
-44z"/>
<path d="M197 164 c-4 -4 -7 -17 -7 -28 1 -19 1 -20 11 -3 11 19 8 43 -4 31z"/>
<path d="M136 71 c-17 -19 -22 -51 -7 -51 5 0 12 12 17 28 l7 27 7 -30 8 -30
1 32 c1 39 -11 48 -33 24z"/>
</g>
</svg>
